<mxfile host="65bd71144e">
    <diagram id="nAQsJP-zkRLGA4kcbhyo" name="Page-1">
        <mxGraphModel dx="1075" dy="2855" grid="1" gridSize="10" guides="1" tooltips="1" connect="1" arrows="1" fold="1" page="1" pageScale="1" pageWidth="900" pageHeight="1600" background="none" math="0" shadow="0">
            <root>
                <object label="" web="1280x900" id="0">
                    <mxCell/>
                </object>
                <mxCell id="1" parent="0"/>
                <mxCell id="263" value="Pga" style="rounded=0;whiteSpace=wrap;html=1;fillColor=#0050ef;fontColor=#ffffff;strokeColor=#001DBC;" vertex="1" parent="1">
                    <mxGeometry width="900" height="80" as="geometry"/>
                </mxCell>
                <mxCell id="264" value="&lt;font style=&quot;font-size: 26px&quot;&gt;Logo&lt;/font&gt;" style="ellipse;whiteSpace=wrap;html=1;aspect=fixed;" vertex="1" parent="1">
                    <mxGeometry x="20" width="80" height="80" as="geometry"/>
                </mxCell>
                <mxCell id="270" value="" style="shape=table;startSize=0;container=1;collapsible=0;childLayout=tableLayout;fontSize=26;" vertex="1" parent="1">
                    <mxGeometry x="130" width="650" height="80" as="geometry"/>
                </mxCell>
                <mxCell id="271" value="" style="shape=partialRectangle;collapsible=0;dropTarget=0;pointerEvents=0;fillColor=none;top=0;left=0;bottom=0;right=0;points=[[0,0.5],[1,0.5]];portConstraint=eastwest;fontSize=26;" vertex="1" parent="270">
                    <mxGeometry width="650" height="80" as="geometry"/>
                </mxCell>
                <mxCell id="272" value="&lt;font style=&quot;font-size: 24px&quot;&gt;Nhân Viên&lt;/font&gt;" style="shape=partialRectangle;html=1;whiteSpace=wrap;connectable=0;overflow=hidden;fillColor=#0050ef;top=0;left=0;bottom=0;right=0;pointerEvents=1;fontSize=26;fontColor=#ffffff;strokeColor=#001DBC;align=center;" vertex="1" parent="271">
                    <mxGeometry width="217" height="80" as="geometry">
                        <mxRectangle width="217" height="80" as="alternateBounds"/>
                    </mxGeometry>
                </mxCell>
                <mxCell id="273" value="&lt;font style=&quot;font-size: 24px&quot;&gt;Phòng Ban&lt;/font&gt;" style="shape=partialRectangle;html=1;whiteSpace=wrap;connectable=0;overflow=hidden;fillColor=#0050ef;top=0;left=0;bottom=0;right=0;pointerEvents=1;fontSize=26;fontColor=#ffffff;strokeColor=#001DBC;" vertex="1" parent="271">
                    <mxGeometry x="217" width="216" height="80" as="geometry">
                        <mxRectangle width="216" height="80" as="alternateBounds"/>
                    </mxGeometry>
                </mxCell>
                <mxCell id="274" value="&lt;font style=&quot;font-size: 24px&quot;&gt;Bảng Lương&lt;/font&gt;" style="shape=partialRectangle;html=1;whiteSpace=wrap;connectable=0;overflow=hidden;fillColor=#0050ef;top=0;left=0;bottom=0;right=0;pointerEvents=1;fontSize=26;fontColor=#ffffff;strokeColor=#001DBC;" vertex="1" parent="271">
                    <mxGeometry x="433" width="217" height="80" as="geometry">
                        <mxRectangle width="217" height="80" as="alternateBounds"/>
                    </mxGeometry>
                </mxCell>
                <mxCell id="275" value="" style="shape=actor;whiteSpace=wrap;html=1;fontSize=26;fillColor=#f5f5f5;fontColor=#333333;strokeColor=#666666;" vertex="1" parent="1">
                    <mxGeometry x="140" y="15" width="30" height="40" as="geometry"/>
                </mxCell>
                <mxCell id="278" value="" style="shape=datastore;whiteSpace=wrap;html=1;fontSize=24;fillColor=#f5f5f5;fontColor=#333333;strokeColor=#666666;" vertex="1" parent="1">
                    <mxGeometry x="360" y="25" width="30" height="30" as="geometry"/>
                </mxCell>
                <mxCell id="279" value="$" style="rounded=1;whiteSpace=wrap;html=1;fontSize=24;fillColor=#f5f5f5;fontColor=#333333;strokeColor=#666666;" vertex="1" parent="1">
                    <mxGeometry x="560" y="27.5" width="40" height="25" as="geometry"/>
                </mxCell>
                <mxCell id="285" value="" style="shape=table;startSize=0;container=1;collapsible=0;childLayout=tableLayout;fontSize=24;" vertex="1" parent="1">
                    <mxGeometry x="40" y="200" width="800" height="450" as="geometry"/>
                </mxCell>
                <mxCell id="286" value="" style="shape=partialRectangle;collapsible=0;dropTarget=0;pointerEvents=0;fillColor=none;top=0;left=0;bottom=0;right=0;points=[[0,0.5],[1,0.5]];portConstraint=eastwest;fontSize=24;" vertex="1" parent="285">
                    <mxGeometry width="800" height="150" as="geometry"/>
                </mxCell>
                <mxCell id="287" value="" style="shape=partialRectangle;html=1;whiteSpace=wrap;connectable=0;overflow=hidden;fillColor=none;top=0;left=0;bottom=0;right=0;pointerEvents=1;fontSize=24;" vertex="1" parent="286">
                    <mxGeometry width="130" height="150" as="geometry">
                        <mxRectangle width="130" height="150" as="alternateBounds"/>
                    </mxGeometry>
                </mxCell>
                <mxCell id="288" value="" style="shape=partialRectangle;html=1;whiteSpace=wrap;connectable=0;overflow=hidden;fillColor=none;top=0;left=0;bottom=0;right=0;pointerEvents=1;fontSize=24;" vertex="1" parent="286">
                    <mxGeometry x="130" width="137" height="150" as="geometry">
                        <mxRectangle width="137" height="150" as="alternateBounds"/>
                    </mxGeometry>
                </mxCell>
                <mxCell id="289" value="" style="shape=partialRectangle;html=1;whiteSpace=wrap;connectable=0;overflow=hidden;fillColor=none;top=0;left=0;bottom=0;right=0;pointerEvents=1;fontSize=24;" vertex="1" parent="286">
                    <mxGeometry x="267" width="133" height="150" as="geometry">
                        <mxRectangle width="133" height="150" as="alternateBounds"/>
                    </mxGeometry>
                </mxCell>
                <mxCell id="290" value="" style="shape=partialRectangle;html=1;whiteSpace=wrap;connectable=0;overflow=hidden;fillColor=none;top=0;left=0;bottom=0;right=0;pointerEvents=1;fontSize=24;" vertex="1" parent="286">
                    <mxGeometry x="400" width="133" height="150" as="geometry">
                        <mxRectangle width="133" height="150" as="alternateBounds"/>
                    </mxGeometry>
                </mxCell>
                <mxCell id="291" value="" style="shape=partialRectangle;html=1;whiteSpace=wrap;connectable=0;overflow=hidden;fillColor=none;top=0;left=0;bottom=0;right=0;pointerEvents=1;fontSize=24;" vertex="1" parent="286">
                    <mxGeometry x="533" width="134" height="150" as="geometry">
                        <mxRectangle width="134" height="150" as="alternateBounds"/>
                    </mxGeometry>
                </mxCell>
                <mxCell id="292" value="" style="shape=partialRectangle;html=1;whiteSpace=wrap;connectable=0;overflow=hidden;fillColor=none;top=0;left=0;bottom=0;right=0;pointerEvents=1;fontSize=24;" vertex="1" parent="286">
                    <mxGeometry x="667" width="133" height="150" as="geometry">
                        <mxRectangle width="133" height="150" as="alternateBounds"/>
                    </mxGeometry>
                </mxCell>
                <mxCell id="293" value="" style="shape=partialRectangle;collapsible=0;dropTarget=0;pointerEvents=0;fillColor=none;top=0;left=0;bottom=0;right=0;points=[[0,0.5],[1,0.5]];portConstraint=eastwest;fontSize=24;" vertex="1" parent="285">
                    <mxGeometry y="150" width="800" height="150" as="geometry"/>
                </mxCell>
                <mxCell id="294" value="" style="shape=partialRectangle;html=1;whiteSpace=wrap;connectable=0;overflow=hidden;fillColor=none;top=0;left=0;bottom=0;right=0;pointerEvents=1;fontSize=24;" vertex="1" parent="293">
                    <mxGeometry width="130" height="150" as="geometry">
                        <mxRectangle width="130" height="150" as="alternateBounds"/>
                    </mxGeometry>
                </mxCell>
                <mxCell id="295" value="" style="shape=partialRectangle;html=1;whiteSpace=wrap;connectable=0;overflow=hidden;fillColor=none;top=0;left=0;bottom=0;right=0;pointerEvents=1;fontSize=24;" vertex="1" parent="293">
                    <mxGeometry x="130" width="137" height="150" as="geometry">
                        <mxRectangle width="137" height="150" as="alternateBounds"/>
                    </mxGeometry>
                </mxCell>
                <mxCell id="296" value="" style="shape=partialRectangle;html=1;whiteSpace=wrap;connectable=0;overflow=hidden;fillColor=none;top=0;left=0;bottom=0;right=0;pointerEvents=1;fontSize=24;" vertex="1" parent="293">
                    <mxGeometry x="267" width="133" height="150" as="geometry">
                        <mxRectangle width="133" height="150" as="alternateBounds"/>
                    </mxGeometry>
                </mxCell>
                <mxCell id="297" value="" style="shape=partialRectangle;html=1;whiteSpace=wrap;connectable=0;overflow=hidden;fillColor=none;top=0;left=0;bottom=0;right=0;pointerEvents=1;fontSize=24;" vertex="1" parent="293">
                    <mxGeometry x="400" width="133" height="150" as="geometry">
                        <mxRectangle width="133" height="150" as="alternateBounds"/>
                    </mxGeometry>
                </mxCell>
                <mxCell id="298" value="" style="shape=partialRectangle;html=1;whiteSpace=wrap;connectable=0;overflow=hidden;fillColor=none;top=0;left=0;bottom=0;right=0;pointerEvents=1;fontSize=24;" vertex="1" parent="293">
                    <mxGeometry x="533" width="134" height="150" as="geometry">
                        <mxRectangle width="134" height="150" as="alternateBounds"/>
                    </mxGeometry>
                </mxCell>
                <mxCell id="299" value="" style="shape=partialRectangle;html=1;whiteSpace=wrap;connectable=0;overflow=hidden;fillColor=none;top=0;left=0;bottom=0;right=0;pointerEvents=1;fontSize=24;" vertex="1" parent="293">
                    <mxGeometry x="667" width="133" height="150" as="geometry">
                        <mxRectangle width="133" height="150" as="alternateBounds"/>
                    </mxGeometry>
                </mxCell>
                <mxCell id="300" value="" style="shape=partialRectangle;collapsible=0;dropTarget=0;pointerEvents=0;fillColor=none;top=0;left=0;bottom=0;right=0;points=[[0,0.5],[1,0.5]];portConstraint=eastwest;fontSize=24;" vertex="1" parent="285">
                    <mxGeometry y="300" width="800" height="150" as="geometry"/>
                </mxCell>
                <mxCell id="301" value="" style="shape=partialRectangle;html=1;whiteSpace=wrap;connectable=0;overflow=hidden;fillColor=none;top=0;left=0;bottom=0;right=0;pointerEvents=1;fontSize=24;" vertex="1" parent="300">
                    <mxGeometry width="130" height="150" as="geometry">
                        <mxRectangle width="130" height="150" as="alternateBounds"/>
                    </mxGeometry>
                </mxCell>
                <mxCell id="302" value="" style="shape=partialRectangle;html=1;whiteSpace=wrap;connectable=0;overflow=hidden;fillColor=none;top=0;left=0;bottom=0;right=0;pointerEvents=1;fontSize=24;" vertex="1" parent="300">
                    <mxGeometry x="130" width="137" height="150" as="geometry">
                        <mxRectangle width="137" height="150" as="alternateBounds"/>
                    </mxGeometry>
                </mxCell>
                <mxCell id="303" value="" style="shape=partialRectangle;html=1;whiteSpace=wrap;connectable=0;overflow=hidden;fillColor=none;top=0;left=0;bottom=0;right=0;pointerEvents=1;fontSize=24;" vertex="1" parent="300">
                    <mxGeometry x="267" width="133" height="150" as="geometry">
                        <mxRectangle width="133" height="150" as="alternateBounds"/>
                    </mxGeometry>
                </mxCell>
                <mxCell id="304" value="" style="shape=partialRectangle;html=1;whiteSpace=wrap;connectable=0;overflow=hidden;fillColor=none;top=0;left=0;bottom=0;right=0;pointerEvents=1;fontSize=24;" vertex="1" parent="300">
                    <mxGeometry x="400" width="133" height="150" as="geometry">
                        <mxRectangle width="133" height="150" as="alternateBounds"/>
                    </mxGeometry>
                </mxCell>
                <mxCell id="305" value="" style="shape=partialRectangle;html=1;whiteSpace=wrap;connectable=0;overflow=hidden;fillColor=none;top=0;left=0;bottom=0;right=0;pointerEvents=1;fontSize=24;" vertex="1" parent="300">
                    <mxGeometry x="533" width="134" height="150" as="geometry">
                        <mxRectangle width="134" height="150" as="alternateBounds"/>
                    </mxGeometry>
                </mxCell>
                <mxCell id="306" value="" style="shape=partialRectangle;html=1;whiteSpace=wrap;connectable=0;overflow=hidden;fillColor=none;top=0;left=0;bottom=0;right=0;pointerEvents=1;fontSize=24;" vertex="1" parent="300">
                    <mxGeometry x="667" width="133" height="150" as="geometry">
                        <mxRectangle width="133" height="150" as="alternateBounds"/>
                    </mxGeometry>
                </mxCell>
                <mxCell id="307" value="&lt;font style=&quot;font-size: 27px&quot;&gt;Nhân viên&lt;/font&gt;" style="rounded=0;whiteSpace=wrap;html=1;fontSize=24;fillColor=#f5f5f5;fontColor=#333333;strokeColor=#666666;noLabel=0;" vertex="1" parent="1">
                    <mxGeometry x="40" y="90" width="170" height="60" as="geometry"/>
                </mxCell>
                <mxCell id="308" value="" style="verticalLabelPosition=bottom;shadow=0;dashed=0;align=center;html=1;verticalAlign=top;strokeWidth=1;shape=mxgraph.mockup.containers.userMale;strokeColor=#666666;strokeColor2=#008cff;fontSize=27;" vertex="1" parent="1">
                    <mxGeometry x="40" y="200" width="130" height="120" as="geometry"/>
                </mxCell>
                <mxCell id="309" value="&lt;font style=&quot;font-size: 16px&quot;&gt;Nguyễn Văn A&lt;/font&gt;" style="rounded=0;whiteSpace=wrap;html=1;fontSize=27;" vertex="1" parent="1">
                    <mxGeometry x="40" y="320" width="130" height="30" as="geometry"/>
                </mxCell>
                <mxCell id="310" value="" style="verticalLabelPosition=bottom;shadow=0;dashed=0;align=center;html=1;verticalAlign=top;strokeWidth=1;shape=mxgraph.mockup.containers.userMale;strokeColor=#666666;strokeColor2=#008cff;fontSize=27;" vertex="1" parent="1">
                    <mxGeometry x="170" y="200" width="130" height="120" as="geometry"/>
                </mxCell>
                <mxCell id="311" value="&lt;font style=&quot;font-size: 16px&quot;&gt;Nguyễn Văn A&lt;/font&gt;" style="rounded=0;whiteSpace=wrap;html=1;fontSize=27;" vertex="1" parent="1">
                    <mxGeometry x="170" y="320" width="130" height="30" as="geometry"/>
                </mxCell>
                <mxCell id="312" value="" style="verticalLabelPosition=bottom;shadow=0;dashed=0;align=center;html=1;verticalAlign=top;strokeWidth=1;shape=mxgraph.mockup.containers.userMale;strokeColor=#666666;strokeColor2=#008cff;fontSize=27;" vertex="1" parent="1">
                    <mxGeometry x="310" y="200" width="130" height="120" as="geometry"/>
                </mxCell>
                <mxCell id="313" value="&lt;font style=&quot;font-size: 16px&quot;&gt;Nguyễn Văn A&lt;/font&gt;" style="rounded=0;whiteSpace=wrap;html=1;fontSize=27;" vertex="1" parent="1">
                    <mxGeometry x="310" y="320" width="130" height="30" as="geometry"/>
                </mxCell>
                <mxCell id="314" value="" style="verticalLabelPosition=bottom;shadow=0;dashed=0;align=center;html=1;verticalAlign=top;strokeWidth=1;shape=mxgraph.mockup.containers.userMale;strokeColor=#666666;strokeColor2=#008cff;fontSize=27;" vertex="1" parent="1">
                    <mxGeometry x="440" y="200" width="130" height="120" as="geometry"/>
                </mxCell>
                <mxCell id="315" value="&lt;font style=&quot;font-size: 16px&quot;&gt;Nguyễn Văn A&lt;/font&gt;" style="rounded=0;whiteSpace=wrap;html=1;fontSize=27;" vertex="1" parent="1">
                    <mxGeometry x="440" y="320" width="130" height="30" as="geometry"/>
                </mxCell>
                <mxCell id="316" value="" style="verticalLabelPosition=bottom;shadow=0;dashed=0;align=center;html=1;verticalAlign=top;strokeWidth=1;shape=mxgraph.mockup.containers.userMale;strokeColor=#666666;strokeColor2=#008cff;fontSize=27;" vertex="1" parent="1">
                    <mxGeometry x="580" y="200" width="130" height="120" as="geometry"/>
                </mxCell>
                <mxCell id="317" value="&lt;font style=&quot;font-size: 16px&quot;&gt;Nguyễn Văn A&lt;/font&gt;" style="rounded=0;whiteSpace=wrap;html=1;fontSize=27;" vertex="1" parent="1">
                    <mxGeometry x="580" y="320" width="130" height="30" as="geometry"/>
                </mxCell>
                <mxCell id="318" value="" style="verticalLabelPosition=bottom;shadow=0;dashed=0;align=center;html=1;verticalAlign=top;strokeWidth=1;shape=mxgraph.mockup.containers.userMale;strokeColor=#666666;strokeColor2=#008cff;fontSize=27;" vertex="1" parent="1">
                    <mxGeometry x="710" y="200" width="130" height="120" as="geometry"/>
                </mxCell>
                <mxCell id="319" value="&lt;font style=&quot;font-size: 16px&quot;&gt;Nguyễn Văn A&lt;/font&gt;" style="rounded=0;whiteSpace=wrap;html=1;fontSize=27;" vertex="1" parent="1">
                    <mxGeometry x="710" y="320" width="130" height="30" as="geometry"/>
                </mxCell>
                <mxCell id="367" value="" style="shape=partialRectangle;collapsible=0;dropTarget=0;pointerEvents=0;fillColor=none;top=0;left=0;bottom=0;right=0;points=[[0,0.5],[1,0.5]];portConstraint=eastwest;fontSize=24;" vertex="1" parent="1">
                    <mxGeometry x="40" y="350" width="800" height="150" as="geometry"/>
                </mxCell>
                <mxCell id="368" value="" style="shape=partialRectangle;html=1;whiteSpace=wrap;connectable=0;overflow=hidden;fillColor=none;top=0;left=0;bottom=0;right=0;pointerEvents=1;fontSize=24;" vertex="1" parent="367">
                    <mxGeometry width="130" height="150" as="geometry">
                        <mxRectangle width="130" height="150" as="alternateBounds"/>
                    </mxGeometry>
                </mxCell>
                <mxCell id="369" value="" style="shape=partialRectangle;html=1;whiteSpace=wrap;connectable=0;overflow=hidden;fillColor=none;top=0;left=0;bottom=0;right=0;pointerEvents=1;fontSize=24;" vertex="1" parent="367">
                    <mxGeometry x="130" width="137" height="150" as="geometry">
                        <mxRectangle width="137" height="150" as="alternateBounds"/>
                    </mxGeometry>
                </mxCell>
                <mxCell id="370" value="" style="shape=partialRectangle;html=1;whiteSpace=wrap;connectable=0;overflow=hidden;fillColor=none;top=0;left=0;bottom=0;right=0;pointerEvents=1;fontSize=24;" vertex="1" parent="367">
                    <mxGeometry x="267" width="133" height="150" as="geometry">
                        <mxRectangle width="133" height="150" as="alternateBounds"/>
                    </mxGeometry>
                </mxCell>
                <mxCell id="371" value="" style="shape=partialRectangle;html=1;whiteSpace=wrap;connectable=0;overflow=hidden;fillColor=none;top=0;left=0;bottom=0;right=0;pointerEvents=1;fontSize=24;" vertex="1" parent="367">
                    <mxGeometry x="400" width="133" height="150" as="geometry">
                        <mxRectangle width="133" height="150" as="alternateBounds"/>
                    </mxGeometry>
                </mxCell>
                <mxCell id="372" value="" style="shape=partialRectangle;html=1;whiteSpace=wrap;connectable=0;overflow=hidden;fillColor=none;top=0;left=0;bottom=0;right=0;pointerEvents=1;fontSize=24;" vertex="1" parent="367">
                    <mxGeometry x="533" width="134" height="150" as="geometry">
                        <mxRectangle width="134" height="150" as="alternateBounds"/>
                    </mxGeometry>
                </mxCell>
                <mxCell id="373" value="" style="shape=partialRectangle;html=1;whiteSpace=wrap;connectable=0;overflow=hidden;fillColor=none;top=0;left=0;bottom=0;right=0;pointerEvents=1;fontSize=24;" vertex="1" parent="367">
                    <mxGeometry x="667" width="133" height="150" as="geometry">
                        <mxRectangle width="133" height="150" as="alternateBounds"/>
                    </mxGeometry>
                </mxCell>
                <mxCell id="374" value="" style="verticalLabelPosition=bottom;shadow=0;dashed=0;align=center;html=1;verticalAlign=top;strokeWidth=1;shape=mxgraph.mockup.containers.userMale;strokeColor=#666666;strokeColor2=#008cff;fontSize=27;" vertex="1" parent="1">
                    <mxGeometry x="40" y="350" width="130" height="120" as="geometry"/>
                </mxCell>
                <mxCell id="375" value="&lt;font style=&quot;font-size: 16px&quot;&gt;Nguyễn Văn A&lt;/font&gt;" style="rounded=0;whiteSpace=wrap;html=1;fontSize=27;" vertex="1" parent="1">
                    <mxGeometry x="40" y="470" width="130" height="30" as="geometry"/>
                </mxCell>
                <mxCell id="376" value="" style="verticalLabelPosition=bottom;shadow=0;dashed=0;align=center;html=1;verticalAlign=top;strokeWidth=1;shape=mxgraph.mockup.containers.userMale;strokeColor=#666666;strokeColor2=#008cff;fontSize=27;" vertex="1" parent="1">
                    <mxGeometry x="170" y="350" width="130" height="120" as="geometry"/>
                </mxCell>
                <mxCell id="377" value="&lt;font style=&quot;font-size: 16px&quot;&gt;Nguyễn Văn A&lt;/font&gt;" style="rounded=0;whiteSpace=wrap;html=1;fontSize=27;" vertex="1" parent="1">
                    <mxGeometry x="170" y="470" width="130" height="30" as="geometry"/>
                </mxCell>
                <mxCell id="378" value="" style="verticalLabelPosition=bottom;shadow=0;dashed=0;align=center;html=1;verticalAlign=top;strokeWidth=1;shape=mxgraph.mockup.containers.userMale;strokeColor=#666666;strokeColor2=#008cff;fontSize=27;" vertex="1" parent="1">
                    <mxGeometry x="310" y="350" width="130" height="120" as="geometry"/>
                </mxCell>
                <mxCell id="379" value="&lt;font style=&quot;font-size: 16px&quot;&gt;Nguyễn Văn A&lt;/font&gt;" style="rounded=0;whiteSpace=wrap;html=1;fontSize=27;" vertex="1" parent="1">
                    <mxGeometry x="310" y="470" width="130" height="30" as="geometry"/>
                </mxCell>
                <mxCell id="380" value="" style="verticalLabelPosition=bottom;shadow=0;dashed=0;align=center;html=1;verticalAlign=top;strokeWidth=1;shape=mxgraph.mockup.containers.userMale;strokeColor=#666666;strokeColor2=#008cff;fontSize=27;" vertex="1" parent="1">
                    <mxGeometry x="440" y="350" width="130" height="120" as="geometry"/>
                </mxCell>
                <mxCell id="381" value="&lt;font style=&quot;font-size: 16px&quot;&gt;Nguyễn Văn A&lt;/font&gt;" style="rounded=0;whiteSpace=wrap;html=1;fontSize=27;" vertex="1" parent="1">
                    <mxGeometry x="440" y="470" width="130" height="30" as="geometry"/>
                </mxCell>
                <mxCell id="382" value="" style="verticalLabelPosition=bottom;shadow=0;dashed=0;align=center;html=1;verticalAlign=top;strokeWidth=1;shape=mxgraph.mockup.containers.userMale;strokeColor=#666666;strokeColor2=#008cff;fontSize=27;" vertex="1" parent="1">
                    <mxGeometry x="580" y="350" width="130" height="120" as="geometry"/>
                </mxCell>
                <mxCell id="383" value="&lt;font style=&quot;font-size: 16px&quot;&gt;Nguyễn Văn A&lt;/font&gt;" style="rounded=0;whiteSpace=wrap;html=1;fontSize=27;" vertex="1" parent="1">
                    <mxGeometry x="580" y="470" width="130" height="30" as="geometry"/>
                </mxCell>
                <mxCell id="384" value="" style="verticalLabelPosition=bottom;shadow=0;dashed=0;align=center;html=1;verticalAlign=top;strokeWidth=1;shape=mxgraph.mockup.containers.userMale;strokeColor=#666666;strokeColor2=#008cff;fontSize=27;" vertex="1" parent="1">
                    <mxGeometry x="710" y="350" width="130" height="120" as="geometry"/>
                </mxCell>
                <mxCell id="385" value="&lt;font style=&quot;font-size: 16px&quot;&gt;Nguyễn Văn A&lt;/font&gt;" style="rounded=0;whiteSpace=wrap;html=1;fontSize=27;" vertex="1" parent="1">
                    <mxGeometry x="710" y="470" width="130" height="30" as="geometry"/>
                </mxCell>
                <mxCell id="386" value="" style="shape=partialRectangle;collapsible=0;dropTarget=0;pointerEvents=0;fillColor=none;top=0;left=0;bottom=0;right=0;points=[[0,0.5],[1,0.5]];portConstraint=eastwest;fontSize=24;" vertex="1" parent="1">
                    <mxGeometry x="40" y="500" width="800" height="150" as="geometry"/>
                </mxCell>
                <mxCell id="387" value="" style="shape=partialRectangle;html=1;whiteSpace=wrap;connectable=0;overflow=hidden;fillColor=none;top=0;left=0;bottom=0;right=0;pointerEvents=1;fontSize=24;" vertex="1" parent="386">
                    <mxGeometry width="130" height="150" as="geometry">
                        <mxRectangle width="130" height="150" as="alternateBounds"/>
                    </mxGeometry>
                </mxCell>
                <mxCell id="388" value="" style="shape=partialRectangle;html=1;whiteSpace=wrap;connectable=0;overflow=hidden;fillColor=none;top=0;left=0;bottom=0;right=0;pointerEvents=1;fontSize=24;" vertex="1" parent="386">
                    <mxGeometry x="130" width="137" height="150" as="geometry">
                        <mxRectangle width="137" height="150" as="alternateBounds"/>
                    </mxGeometry>
                </mxCell>
                <mxCell id="389" value="" style="shape=partialRectangle;html=1;whiteSpace=wrap;connectable=0;overflow=hidden;fillColor=none;top=0;left=0;bottom=0;right=0;pointerEvents=1;fontSize=24;" vertex="1" parent="386">
                    <mxGeometry x="267" width="133" height="150" as="geometry">
                        <mxRectangle width="133" height="150" as="alternateBounds"/>
                    </mxGeometry>
                </mxCell>
                <mxCell id="390" value="" style="shape=partialRectangle;html=1;whiteSpace=wrap;connectable=0;overflow=hidden;fillColor=none;top=0;left=0;bottom=0;right=0;pointerEvents=1;fontSize=24;" vertex="1" parent="386">
                    <mxGeometry x="400" width="133" height="150" as="geometry">
                        <mxRectangle width="133" height="150" as="alternateBounds"/>
                    </mxGeometry>
                </mxCell>
                <mxCell id="391" value="" style="shape=partialRectangle;html=1;whiteSpace=wrap;connectable=0;overflow=hidden;fillColor=none;top=0;left=0;bottom=0;right=0;pointerEvents=1;fontSize=24;" vertex="1" parent="386">
                    <mxGeometry x="533" width="134" height="150" as="geometry">
                        <mxRectangle width="134" height="150" as="alternateBounds"/>
                    </mxGeometry>
                </mxCell>
                <mxCell id="392" value="" style="shape=partialRectangle;html=1;whiteSpace=wrap;connectable=0;overflow=hidden;fillColor=none;top=0;left=0;bottom=0;right=0;pointerEvents=1;fontSize=24;" vertex="1" parent="386">
                    <mxGeometry x="667" width="133" height="150" as="geometry">
                        <mxRectangle width="133" height="150" as="alternateBounds"/>
                    </mxGeometry>
                </mxCell>
                <mxCell id="393" value="" style="verticalLabelPosition=bottom;shadow=0;dashed=0;align=center;html=1;verticalAlign=top;strokeWidth=1;shape=mxgraph.mockup.containers.userMale;strokeColor=#666666;strokeColor2=#008cff;fontSize=27;" vertex="1" parent="1">
                    <mxGeometry x="40" y="500" width="130" height="120" as="geometry"/>
                </mxCell>
                <mxCell id="394" value="&lt;font style=&quot;font-size: 16px&quot;&gt;Nguyễn Văn A&lt;/font&gt;" style="rounded=0;whiteSpace=wrap;html=1;fontSize=27;" vertex="1" parent="1">
                    <mxGeometry x="40" y="620" width="130" height="30" as="geometry"/>
                </mxCell>
                <mxCell id="395" value="" style="verticalLabelPosition=bottom;shadow=0;dashed=0;align=center;html=1;verticalAlign=top;strokeWidth=1;shape=mxgraph.mockup.containers.userMale;strokeColor=#666666;strokeColor2=#008cff;fontSize=27;" vertex="1" parent="1">
                    <mxGeometry x="170" y="500" width="130" height="120" as="geometry"/>
                </mxCell>
                <mxCell id="396" value="&lt;font style=&quot;font-size: 16px&quot;&gt;Nguyễn Văn A&lt;/font&gt;" style="rounded=0;whiteSpace=wrap;html=1;fontSize=27;" vertex="1" parent="1">
                    <mxGeometry x="170" y="620" width="130" height="30" as="geometry"/>
                </mxCell>
                <mxCell id="397" value="" style="verticalLabelPosition=bottom;shadow=0;dashed=0;align=center;html=1;verticalAlign=top;strokeWidth=1;shape=mxgraph.mockup.containers.userMale;strokeColor=#666666;strokeColor2=#008cff;fontSize=27;" vertex="1" parent="1">
                    <mxGeometry x="310" y="500" width="130" height="120" as="geometry"/>
                </mxCell>
                <mxCell id="398" value="&lt;font style=&quot;font-size: 16px&quot;&gt;Nguyễn Văn A&lt;/font&gt;" style="rounded=0;whiteSpace=wrap;html=1;fontSize=27;" vertex="1" parent="1">
                    <mxGeometry x="310" y="620" width="130" height="30" as="geometry"/>
                </mxCell>
                <mxCell id="399" value="" style="verticalLabelPosition=bottom;shadow=0;dashed=0;align=center;html=1;verticalAlign=top;strokeWidth=1;shape=mxgraph.mockup.containers.userMale;strokeColor=#666666;strokeColor2=#008cff;fontSize=27;" vertex="1" parent="1">
                    <mxGeometry x="440" y="500" width="130" height="120" as="geometry"/>
                </mxCell>
                <mxCell id="400" value="&lt;font style=&quot;font-size: 16px&quot;&gt;Nguyễn Văn A&lt;/font&gt;" style="rounded=0;whiteSpace=wrap;html=1;fontSize=27;" vertex="1" parent="1">
                    <mxGeometry x="440" y="620" width="130" height="30" as="geometry"/>
                </mxCell>
                <mxCell id="401" value="" style="verticalLabelPosition=bottom;shadow=0;dashed=0;align=center;html=1;verticalAlign=top;strokeWidth=1;shape=mxgraph.mockup.containers.userMale;strokeColor=#666666;strokeColor2=#008cff;fontSize=27;" vertex="1" parent="1">
                    <mxGeometry x="580" y="500" width="130" height="120" as="geometry"/>
                </mxCell>
                <mxCell id="402" value="&lt;font style=&quot;font-size: 16px&quot;&gt;Nguyễn Văn A&lt;/font&gt;" style="rounded=0;whiteSpace=wrap;html=1;fontSize=27;" vertex="1" parent="1">
                    <mxGeometry x="580" y="620" width="130" height="30" as="geometry"/>
                </mxCell>
                <mxCell id="403" value="" style="verticalLabelPosition=bottom;shadow=0;dashed=0;align=center;html=1;verticalAlign=top;strokeWidth=1;shape=mxgraph.mockup.containers.userMale;strokeColor=#666666;strokeColor2=#008cff;fontSize=27;" vertex="1" parent="1">
                    <mxGeometry x="710" y="500" width="130" height="120" as="geometry"/>
                </mxCell>
                <mxCell id="404" value="&lt;font style=&quot;font-size: 16px&quot;&gt;Nguyễn Văn A&lt;/font&gt;" style="rounded=0;whiteSpace=wrap;html=1;fontSize=27;" vertex="1" parent="1">
                    <mxGeometry x="710" y="620" width="130" height="30" as="geometry"/>
                </mxCell>
                <mxCell id="405" value="&lt;font style=&quot;font-size: 31px&quot;&gt;Footer&lt;/font&gt;" style="rounded=0;whiteSpace=wrap;html=1;fontSize=16;fillColor=#1ba1e2;fontColor=#ffffff;strokeColor=#006EAF;" vertex="1" parent="1">
                    <mxGeometry y="710" width="900" height="190" as="geometry"/>
                </mxCell>
                <mxCell id="408" value="" style="line;strokeWidth=2;html=1;fontSize=16;" vertex="1" parent="1">
                    <mxGeometry x="10" y="940" width="880" height="10" as="geometry"/>
                </mxCell>
                <mxCell id="409" value="&lt;font style=&quot;font-size: 28px&quot;&gt;Contact&lt;/font&gt;" style="shape=ext;double=1;rounded=0;whiteSpace=wrap;html=1;fontSize=16;fillColor=#1ba1e2;fontColor=#ffffff;strokeColor=#006EAF;" vertex="1" parent="1">
                    <mxGeometry x="120" y="730" width="180" height="150" as="geometry"/>
                </mxCell>
                <mxCell id="417" value="&lt;span style=&quot;font-size: 30px&quot;&gt;Link&lt;/span&gt;" style="rounded=0;whiteSpace=wrap;html=1;fontSize=31;fillColor=#1ba1e2;fontColor=#ffffff;strokeColor=#006EAF;" vertex="1" parent="1">
                    <mxGeometry x="640" y="785" width="220" height="30" as="geometry"/>
                </mxCell>
                <mxCell id="418" value="" style="rounded=0;whiteSpace=wrap;html=1;fillColor=#0050ef;fontColor=#ffffff;strokeColor=#001DBC;" vertex="1" parent="1">
                    <mxGeometry y="1070" width="900" height="80" as="geometry"/>
                </mxCell>
                <mxCell id="419" value="&lt;font style=&quot;font-size: 26px&quot;&gt;Logo&lt;/font&gt;" style="ellipse;whiteSpace=wrap;html=1;aspect=fixed;" vertex="1" parent="1">
                    <mxGeometry x="20" y="1070" width="80" height="80" as="geometry"/>
                </mxCell>
                <mxCell id="420" value="" style="shape=table;startSize=0;container=1;collapsible=0;childLayout=tableLayout;fontSize=26;" vertex="1" parent="1">
                    <mxGeometry x="130" y="1070" width="650" height="80" as="geometry"/>
                </mxCell>
                <mxCell id="421" value="" style="shape=partialRectangle;collapsible=0;dropTarget=0;pointerEvents=0;fillColor=none;top=0;left=0;bottom=0;right=0;points=[[0,0.5],[1,0.5]];portConstraint=eastwest;fontSize=26;" vertex="1" parent="420">
                    <mxGeometry width="650" height="80" as="geometry"/>
                </mxCell>
                <mxCell id="422" value="&lt;font style=&quot;font-size: 24px&quot;&gt;Nhân Viên&lt;/font&gt;" style="shape=partialRectangle;html=1;whiteSpace=wrap;connectable=0;overflow=hidden;fillColor=#0050ef;top=0;left=0;bottom=0;right=0;pointerEvents=1;fontSize=26;fontColor=#ffffff;strokeColor=#001DBC;align=center;" vertex="1" parent="421">
                    <mxGeometry width="217" height="80" as="geometry">
                        <mxRectangle width="217" height="80" as="alternateBounds"/>
                    </mxGeometry>
                </mxCell>
                <mxCell id="423" value="&lt;font style=&quot;font-size: 24px&quot;&gt;Phòng Ban&lt;/font&gt;" style="shape=partialRectangle;html=1;whiteSpace=wrap;connectable=0;overflow=hidden;fillColor=#0050ef;top=0;left=0;bottom=0;right=0;pointerEvents=1;fontSize=26;fontColor=#ffffff;strokeColor=#001DBC;" vertex="1" parent="421">
                    <mxGeometry x="217" width="216" height="80" as="geometry">
                        <mxRectangle width="216" height="80" as="alternateBounds"/>
                    </mxGeometry>
                </mxCell>
                <mxCell id="424" value="&lt;font style=&quot;font-size: 24px&quot;&gt;Bảng Lương&lt;/font&gt;" style="shape=partialRectangle;html=1;whiteSpace=wrap;connectable=0;overflow=hidden;fillColor=#0050ef;top=0;left=0;bottom=0;right=0;pointerEvents=1;fontSize=26;fontColor=#ffffff;strokeColor=#001DBC;" vertex="1" parent="421">
                    <mxGeometry x="433" width="217" height="80" as="geometry">
                        <mxRectangle width="217" height="80" as="alternateBounds"/>
                    </mxGeometry>
                </mxCell>
                <mxCell id="425" value="" style="shape=actor;whiteSpace=wrap;html=1;fontSize=26;fillColor=#f5f5f5;fontColor=#333333;strokeColor=#666666;" vertex="1" parent="1">
                    <mxGeometry x="140" y="1085" width="30" height="40" as="geometry"/>
                </mxCell>
                <mxCell id="426" value="" style="shape=datastore;whiteSpace=wrap;html=1;fontSize=24;fillColor=#f5f5f5;fontColor=#333333;strokeColor=#666666;" vertex="1" parent="1">
                    <mxGeometry x="360" y="1095" width="30" height="30" as="geometry"/>
                </mxCell>
                <mxCell id="427" value="$" style="rounded=1;whiteSpace=wrap;html=1;fontSize=24;fillColor=#f5f5f5;fontColor=#333333;strokeColor=#666666;" vertex="1" parent="1">
                    <mxGeometry x="560" y="1097.5" width="40" height="25" as="geometry"/>
                </mxCell>
                <mxCell id="450" value="&lt;font style=&quot;font-size: 27px&quot;&gt;&lt;u&gt;Nhân viên&lt;/u&gt; / Nguyễn Văn A&lt;/font&gt;" style="rounded=0;whiteSpace=wrap;html=1;fontSize=24;fillColor=#f5f5f5;fontColor=#333333;strokeColor=#666666;noLabel=0;" vertex="1" parent="1">
                    <mxGeometry x="40" y="1160" width="340" height="60" as="geometry"/>
                </mxCell>
                <mxCell id="501" value="&lt;font style=&quot;font-size: 31px&quot;&gt;Footer&lt;/font&gt;" style="rounded=0;whiteSpace=wrap;html=1;fontSize=16;fillColor=#1ba1e2;fontColor=#ffffff;strokeColor=#006EAF;" vertex="1" parent="1">
                    <mxGeometry y="1580" width="900" height="190" as="geometry"/>
                </mxCell>
                <mxCell id="502" value="&lt;font style=&quot;font-size: 28px&quot;&gt;Contact&lt;/font&gt;" style="shape=ext;double=1;rounded=0;whiteSpace=wrap;html=1;fontSize=16;fillColor=#1ba1e2;fontColor=#ffffff;strokeColor=#006EAF;" vertex="1" parent="1">
                    <mxGeometry x="120" y="1600" width="180" height="150" as="geometry"/>
                </mxCell>
                <mxCell id="503" value="&lt;span style=&quot;font-size: 30px&quot;&gt;Link&lt;/span&gt;" style="rounded=0;whiteSpace=wrap;html=1;fontSize=31;fillColor=#1ba1e2;fontColor=#ffffff;strokeColor=#006EAF;" vertex="1" parent="1">
                    <mxGeometry x="640" y="1655" width="220" height="30" as="geometry"/>
                </mxCell>
                <mxCell id="504" value="&lt;font style=&quot;font-size: 49px&quot;&gt;information staff&lt;/font&gt;" style="rounded=0;whiteSpace=wrap;html=1;fontSize=30;" vertex="1" parent="1">
                    <mxGeometry x="320" y="1260" width="460" height="270" as="geometry"/>
                </mxCell>
                <mxCell id="505" value="" style="verticalLabelPosition=bottom;shadow=0;dashed=0;align=center;html=1;verticalAlign=top;strokeWidth=1;shape=mxgraph.mockup.containers.userMale;strokeColor=#666666;strokeColor2=#008cff;fontSize=30;" vertex="1" parent="1">
                    <mxGeometry x="50" y="1260" width="270" height="270" as="geometry"/>
                </mxCell>
                <mxCell id="506" value="" style="rounded=0;whiteSpace=wrap;html=1;fillColor=#0050ef;fontColor=#ffffff;strokeColor=#001DBC;" vertex="1" parent="1">
                    <mxGeometry y="1990" width="900" height="80" as="geometry"/>
                </mxCell>
                <mxCell id="507" value="&lt;font style=&quot;font-size: 26px&quot;&gt;Logo&lt;/font&gt;" style="ellipse;whiteSpace=wrap;html=1;aspect=fixed;" vertex="1" parent="1">
                    <mxGeometry x="20" y="1990" width="80" height="80" as="geometry"/>
                </mxCell>
                <mxCell id="508" value="" style="shape=table;startSize=0;container=1;collapsible=0;childLayout=tableLayout;fontSize=26;" vertex="1" parent="1">
                    <mxGeometry x="130" y="1990" width="650" height="80" as="geometry"/>
                </mxCell>
                <mxCell id="509" value="" style="shape=partialRectangle;collapsible=0;dropTarget=0;pointerEvents=0;fillColor=none;top=0;left=0;bottom=0;right=0;points=[[0,0.5],[1,0.5]];portConstraint=eastwest;fontSize=26;" vertex="1" parent="508">
                    <mxGeometry width="650" height="80" as="geometry"/>
                </mxCell>
                <mxCell id="510" value="&lt;font style=&quot;font-size: 24px&quot;&gt;Nhân Viên&lt;/font&gt;" style="shape=partialRectangle;html=1;whiteSpace=wrap;connectable=0;overflow=hidden;fillColor=#0050ef;top=0;left=0;bottom=0;right=0;pointerEvents=1;fontSize=26;fontColor=#ffffff;strokeColor=#001DBC;align=center;" vertex="1" parent="509">
                    <mxGeometry width="217" height="80" as="geometry">
                        <mxRectangle width="217" height="80" as="alternateBounds"/>
                    </mxGeometry>
                </mxCell>
                <mxCell id="511" value="&lt;font style=&quot;font-size: 24px&quot;&gt;Phòng Ban&lt;/font&gt;" style="shape=partialRectangle;html=1;whiteSpace=wrap;connectable=0;overflow=hidden;fillColor=#0050ef;top=0;left=0;bottom=0;right=0;pointerEvents=1;fontSize=26;fontColor=#ffffff;strokeColor=#001DBC;" vertex="1" parent="509">
                    <mxGeometry x="217" width="216" height="80" as="geometry">
                        <mxRectangle width="216" height="80" as="alternateBounds"/>
                    </mxGeometry>
                </mxCell>
                <mxCell id="512" value="&lt;font style=&quot;font-size: 24px&quot;&gt;Bảng Lương&lt;/font&gt;" style="shape=partialRectangle;html=1;whiteSpace=wrap;connectable=0;overflow=hidden;fillColor=#0050ef;top=0;left=0;bottom=0;right=0;pointerEvents=1;fontSize=26;fontColor=#ffffff;strokeColor=#001DBC;" vertex="1" parent="509">
                    <mxGeometry x="433" width="217" height="80" as="geometry">
                        <mxRectangle width="217" height="80" as="alternateBounds"/>
                    </mxGeometry>
                </mxCell>
                <mxCell id="513" value="" style="shape=actor;whiteSpace=wrap;html=1;fontSize=26;fillColor=#f5f5f5;fontColor=#333333;strokeColor=#666666;" vertex="1" parent="1">
                    <mxGeometry x="140" y="2005" width="30" height="40" as="geometry"/>
                </mxCell>
                <mxCell id="514" value="" style="shape=datastore;whiteSpace=wrap;html=1;fontSize=24;fillColor=#f5f5f5;fontColor=#333333;strokeColor=#666666;" vertex="1" parent="1">
                    <mxGeometry x="360" y="2015" width="30" height="30" as="geometry"/>
                </mxCell>
                <mxCell id="515" value="$" style="rounded=1;whiteSpace=wrap;html=1;fontSize=24;fillColor=#f5f5f5;fontColor=#333333;strokeColor=#666666;" vertex="1" parent="1">
                    <mxGeometry x="560" y="2017.5" width="40" height="25" as="geometry"/>
                </mxCell>
                <mxCell id="516" value="&lt;font style=&quot;font-size: 27px&quot;&gt;Phòng Ban&lt;/font&gt;" style="rounded=0;whiteSpace=wrap;html=1;fontSize=24;fillColor=#f5f5f5;fontColor=#333333;strokeColor=#666666;noLabel=0;" vertex="1" parent="1">
                    <mxGeometry x="40" y="2080" width="190" height="60" as="geometry"/>
                </mxCell>
                <mxCell id="517" value="&lt;font style=&quot;font-size: 31px&quot;&gt;Footer&lt;/font&gt;" style="rounded=0;whiteSpace=wrap;html=1;fontSize=16;fillColor=#1ba1e2;fontColor=#ffffff;strokeColor=#006EAF;" vertex="1" parent="1">
                    <mxGeometry y="2500" width="900" height="190" as="geometry"/>
                </mxCell>
                <mxCell id="518" value="&lt;font style=&quot;font-size: 28px&quot;&gt;Contact&lt;/font&gt;" style="shape=ext;double=1;rounded=0;whiteSpace=wrap;html=1;fontSize=16;fillColor=#1ba1e2;fontColor=#ffffff;strokeColor=#006EAF;" vertex="1" parent="1">
                    <mxGeometry x="120" y="2520" width="180" height="150" as="geometry"/>
                </mxCell>
                <mxCell id="519" value="&lt;span style=&quot;font-size: 30px&quot;&gt;Link&lt;/span&gt;" style="rounded=0;whiteSpace=wrap;html=1;fontSize=31;fillColor=#1ba1e2;fontColor=#ffffff;strokeColor=#006EAF;" vertex="1" parent="1">
                    <mxGeometry x="640" y="2575" width="220" height="30" as="geometry"/>
                </mxCell>
                <mxCell id="522" value="" style="shape=table;startSize=0;container=1;collapsible=0;childLayout=tableLayout;fontSize=49;" vertex="1" parent="1">
                    <mxGeometry x="40" y="2170" width="820" height="280" as="geometry"/>
                </mxCell>
                <mxCell id="523" value="" style="shape=partialRectangle;collapsible=0;dropTarget=0;pointerEvents=0;fillColor=none;top=0;left=0;bottom=0;right=0;points=[[0,0.5],[1,0.5]];portConstraint=eastwest;fontSize=49;" vertex="1" parent="522">
                    <mxGeometry width="820" height="140" as="geometry"/>
                </mxCell>
                <mxCell id="524" value="Sale&lt;br&gt;&lt;font style=&quot;font-size: 23px&quot;&gt;Số lượng nhân viên: 1&lt;/font&gt;" style="shape=partialRectangle;html=1;whiteSpace=wrap;connectable=0;overflow=hidden;fillColor=none;top=0;left=0;bottom=0;right=0;pointerEvents=1;fontSize=49;align=left;" vertex="1" parent="523">
                    <mxGeometry width="273" height="140" as="geometry">
                        <mxRectangle width="273" height="140" as="alternateBounds"/>
                    </mxGeometry>
                </mxCell>
                <mxCell id="525" value="HR&lt;br&gt;&lt;font style=&quot;font-size: 23px&quot;&gt;Số lượng nhân viên: 1&lt;/font&gt;" style="shape=partialRectangle;html=1;whiteSpace=wrap;connectable=0;overflow=hidden;fillColor=none;top=0;left=0;bottom=0;right=0;pointerEvents=1;fontSize=49;align=left;" vertex="1" parent="523">
                    <mxGeometry x="273" width="274" height="140" as="geometry">
                        <mxRectangle width="274" height="140" as="alternateBounds"/>
                    </mxGeometry>
                </mxCell>
                <mxCell id="526" value="&lt;div style=&quot;&quot;&gt;&lt;span&gt;Marketing&lt;/span&gt;&lt;/div&gt;&lt;font style=&quot;font-size: 23px;&quot;&gt;Số lượng nhân viên: 1&lt;/font&gt;" style="shape=partialRectangle;html=1;whiteSpace=wrap;connectable=0;overflow=hidden;fillColor=none;top=0;left=0;bottom=0;right=0;pointerEvents=1;fontSize=49;align=left;" vertex="1" parent="523">
                    <mxGeometry x="547" width="273" height="140" as="geometry">
                        <mxRectangle width="273" height="140" as="alternateBounds"/>
                    </mxGeometry>
                </mxCell>
                <mxCell id="527" value="" style="shape=partialRectangle;collapsible=0;dropTarget=0;pointerEvents=0;fillColor=none;top=0;left=0;bottom=0;right=0;points=[[0,0.5],[1,0.5]];portConstraint=eastwest;fontSize=49;" vertex="1" parent="522">
                    <mxGeometry y="140" width="820" height="140" as="geometry"/>
                </mxCell>
                <mxCell id="528" value="IT&lt;br&gt;&lt;font style=&quot;font-size: 23px&quot;&gt;Số lượng nhân viên: 1&lt;/font&gt;" style="shape=partialRectangle;html=1;whiteSpace=wrap;connectable=0;overflow=hidden;fillColor=none;top=0;left=0;bottom=0;right=0;pointerEvents=1;fontSize=49;align=left;" vertex="1" parent="527">
                    <mxGeometry width="273" height="140" as="geometry">
                        <mxRectangle width="273" height="140" as="alternateBounds"/>
                    </mxGeometry>
                </mxCell>
                <mxCell id="529" value="Finance&lt;br&gt;&lt;font style=&quot;font-size: 23px&quot;&gt;Số lượng nhân viên: 1&lt;/font&gt;" style="shape=partialRectangle;html=1;whiteSpace=wrap;connectable=0;overflow=hidden;fillColor=none;top=0;left=0;bottom=0;right=0;pointerEvents=1;fontSize=49;align=left;" vertex="1" parent="527">
                    <mxGeometry x="273" width="274" height="140" as="geometry">
                        <mxRectangle width="274" height="140" as="alternateBounds"/>
                    </mxGeometry>
                </mxCell>
                <mxCell id="530" value="" style="shape=partialRectangle;html=1;whiteSpace=wrap;connectable=0;overflow=hidden;fillColor=none;top=0;left=0;bottom=0;right=0;pointerEvents=1;fontSize=49;" vertex="1" parent="527">
                    <mxGeometry x="547" width="273" height="140" as="geometry">
                        <mxRectangle width="273" height="140" as="alternateBounds"/>
                    </mxGeometry>
                </mxCell>
                <mxCell id="531" value="" style="rounded=0;whiteSpace=wrap;html=1;fillColor=#0050ef;fontColor=#ffffff;strokeColor=#001DBC;" vertex="1" parent="1">
                    <mxGeometry y="2920" width="900" height="80" as="geometry"/>
                </mxCell>
                <mxCell id="532" value="&lt;font style=&quot;font-size: 26px&quot;&gt;Logo&lt;/font&gt;" style="ellipse;whiteSpace=wrap;html=1;aspect=fixed;" vertex="1" parent="1">
                    <mxGeometry x="20" y="2920" width="80" height="80" as="geometry"/>
                </mxCell>
                <mxCell id="533" value="" style="shape=table;startSize=0;container=1;collapsible=0;childLayout=tableLayout;fontSize=26;" vertex="1" parent="1">
                    <mxGeometry x="130" y="2920" width="650" height="80" as="geometry"/>
                </mxCell>
                <mxCell id="534" value="" style="shape=partialRectangle;collapsible=0;dropTarget=0;pointerEvents=0;fillColor=none;top=0;left=0;bottom=0;right=0;points=[[0,0.5],[1,0.5]];portConstraint=eastwest;fontSize=26;" vertex="1" parent="533">
                    <mxGeometry width="650" height="80" as="geometry"/>
                </mxCell>
                <mxCell id="535" value="&lt;font style=&quot;font-size: 24px&quot;&gt;Nhân Viên&lt;/font&gt;" style="shape=partialRectangle;html=1;whiteSpace=wrap;connectable=0;overflow=hidden;fillColor=#0050ef;top=0;left=0;bottom=0;right=0;pointerEvents=1;fontSize=26;fontColor=#ffffff;strokeColor=#001DBC;align=center;" vertex="1" parent="534">
                    <mxGeometry width="217" height="80" as="geometry">
                        <mxRectangle width="217" height="80" as="alternateBounds"/>
                    </mxGeometry>
                </mxCell>
                <mxCell id="536" value="&lt;font style=&quot;font-size: 24px&quot;&gt;Phòng Ban&lt;/font&gt;" style="shape=partialRectangle;html=1;whiteSpace=wrap;connectable=0;overflow=hidden;fillColor=#0050ef;top=0;left=0;bottom=0;right=0;pointerEvents=1;fontSize=26;fontColor=#ffffff;strokeColor=#001DBC;" vertex="1" parent="534">
                    <mxGeometry x="217" width="216" height="80" as="geometry">
                        <mxRectangle width="216" height="80" as="alternateBounds"/>
                    </mxGeometry>
                </mxCell>
                <mxCell id="537" value="&lt;font style=&quot;font-size: 24px&quot;&gt;Bảng Lương&lt;/font&gt;" style="shape=partialRectangle;html=1;whiteSpace=wrap;connectable=0;overflow=hidden;fillColor=#0050ef;top=0;left=0;bottom=0;right=0;pointerEvents=1;fontSize=26;fontColor=#ffffff;strokeColor=#001DBC;" vertex="1" parent="534">
                    <mxGeometry x="433" width="217" height="80" as="geometry">
                        <mxRectangle width="217" height="80" as="alternateBounds"/>
                    </mxGeometry>
                </mxCell>
                <mxCell id="538" value="" style="shape=actor;whiteSpace=wrap;html=1;fontSize=26;fillColor=#f5f5f5;fontColor=#333333;strokeColor=#666666;" vertex="1" parent="1">
                    <mxGeometry x="140" y="2935" width="30" height="40" as="geometry"/>
                </mxCell>
                <mxCell id="539" value="" style="shape=datastore;whiteSpace=wrap;html=1;fontSize=24;fillColor=#f5f5f5;fontColor=#333333;strokeColor=#666666;" vertex="1" parent="1">
                    <mxGeometry x="360" y="2945" width="30" height="30" as="geometry"/>
                </mxCell>
                <mxCell id="540" value="$" style="rounded=1;whiteSpace=wrap;html=1;fontSize=24;fillColor=#f5f5f5;fontColor=#333333;strokeColor=#666666;" vertex="1" parent="1">
                    <mxGeometry x="560" y="2947.5" width="40" height="25" as="geometry"/>
                </mxCell>
                <mxCell id="541" value="&lt;font style=&quot;font-size: 27px&quot;&gt;&lt;u&gt;Nhân Viên&lt;/u&gt; / Bảng Lương&lt;/font&gt;" style="rounded=0;whiteSpace=wrap;html=1;fontSize=24;fillColor=#f5f5f5;fontColor=#333333;strokeColor=#666666;noLabel=0;" vertex="1" parent="1">
                    <mxGeometry x="40" y="3010" width="360" height="60" as="geometry"/>
                </mxCell>
                <mxCell id="542" value="&lt;font style=&quot;font-size: 31px&quot;&gt;Footer&lt;/font&gt;" style="rounded=0;whiteSpace=wrap;html=1;fontSize=16;fillColor=#1ba1e2;fontColor=#ffffff;strokeColor=#006EAF;" vertex="1" parent="1">
                    <mxGeometry y="4040" width="900" height="190" as="geometry"/>
                </mxCell>
                <mxCell id="543" value="&lt;font style=&quot;font-size: 28px&quot;&gt;Contact&lt;/font&gt;" style="shape=ext;double=1;rounded=0;whiteSpace=wrap;html=1;fontSize=16;fillColor=#1ba1e2;fontColor=#ffffff;strokeColor=#006EAF;" vertex="1" parent="1">
                    <mxGeometry x="125" y="4060" width="180" height="150" as="geometry"/>
                </mxCell>
                <mxCell id="544" value="&lt;span style=&quot;font-size: 30px&quot;&gt;Link&lt;/span&gt;" style="rounded=0;whiteSpace=wrap;html=1;fontSize=31;fillColor=#1ba1e2;fontColor=#ffffff;strokeColor=#006EAF;" vertex="1" parent="1">
                    <mxGeometry x="645" y="4115" width="220" height="30" as="geometry"/>
                </mxCell>
                <mxCell id="555" value="" style="shape=table;startSize=0;container=1;collapsible=0;childLayout=tableLayout;fontSize=23;align=left;verticalAlign=top;" vertex="1" parent="1">
                    <mxGeometry x="50" y="3120" width="800" height="870" as="geometry"/>
                </mxCell>
                <mxCell id="556" value="" style="shape=partialRectangle;collapsible=0;dropTarget=0;pointerEvents=0;fillColor=none;top=0;left=0;bottom=0;right=0;points=[[0,0.5],[1,0.5]];portConstraint=eastwest;fontSize=23;align=left;verticalAlign=top;" vertex="1" parent="555">
                    <mxGeometry width="800" height="174" as="geometry"/>
                </mxCell>
                <mxCell id="557" value="&lt;font&gt;&lt;font style=&quot;font-size: 30px&quot;&gt;Nguyễn Văn A&lt;/font&gt;&lt;br&gt;&lt;span style=&quot;font-size: 25px&quot;&gt;&lt;/span&gt;&lt;span style=&quot;font-size: 25px&quot;&gt;&#9;&lt;/span&gt;&lt;span style=&quot;font-size: 25px&quot;&gt;Mã nhân viên&lt;/span&gt;&lt;br&gt;&lt;span style=&quot;font-size: 25px&quot;&gt;&#9;&lt;/span&gt;&lt;span style=&quot;font-size: 25px&quot;&gt;Hệ số lương:&lt;/span&gt;&lt;br&gt;&lt;span style=&quot;font-size: 25px&quot;&gt;&#9;&lt;/span&gt;&lt;span style=&quot;font-size: 25px&quot;&gt;Số giờ làm thêm&lt;br&gt;&lt;/span&gt;&lt;span&gt;&#9;&lt;/span&gt;Lương:&lt;br&gt;&lt;/font&gt;" style="shape=partialRectangle;html=1;whiteSpace=wrap;connectable=0;overflow=hidden;fillColor=none;top=0;left=0;bottom=0;right=0;pointerEvents=1;fontSize=23;verticalAlign=top;align=left;" vertex="1" parent="556">
                    <mxGeometry width="266" height="174" as="geometry">
                        <mxRectangle width="266" height="174" as="alternateBounds"/>
                    </mxGeometry>
                </mxCell>
                <mxCell id="558" value="&lt;font style=&quot;font-size: 30px;&quot;&gt;Nguyễn Văn A&lt;/font&gt;&lt;br style=&quot;&quot;&gt;&lt;span style=&quot;font-size: 25px;&quot;&gt;&lt;/span&gt;&lt;span style=&quot;font-size: 25px;&quot;&gt;&#9;&lt;/span&gt;&lt;span style=&quot;font-size: 25px;&quot;&gt;Mã nhân viên&lt;/span&gt;&lt;br style=&quot;&quot;&gt;&lt;span style=&quot;font-size: 25px;&quot;&gt;&#9;&lt;/span&gt;&lt;span style=&quot;font-size: 25px;&quot;&gt;Hệ số lương:&lt;/span&gt;&lt;br style=&quot;&quot;&gt;&lt;span style=&quot;font-size: 25px;&quot;&gt;&#9;&lt;/span&gt;&lt;span style=&quot;font-size: 25px;&quot;&gt;Số giờ làm thêm&lt;br&gt;&lt;/span&gt;&lt;span style=&quot;&quot;&gt;&#9;&lt;/span&gt;&lt;span style=&quot;&quot;&gt;Lương:&lt;/span&gt;" style="shape=partialRectangle;html=1;whiteSpace=wrap;connectable=0;overflow=hidden;fillColor=none;top=0;left=0;bottom=0;right=0;pointerEvents=1;fontSize=23;align=left;verticalAlign=top;" vertex="1" parent="556">
                    <mxGeometry x="266" width="268" height="174" as="geometry">
                        <mxRectangle width="268" height="174" as="alternateBounds"/>
                    </mxGeometry>
                </mxCell>
                <mxCell id="559" value="&lt;font style=&quot;font-size: 30px;&quot;&gt;Nguyễn Văn A&lt;/font&gt;&lt;br style=&quot;&quot;&gt;&lt;span style=&quot;font-size: 25px;&quot;&gt;&lt;/span&gt;&lt;span style=&quot;font-size: 25px;&quot;&gt;&#9;&lt;/span&gt;&lt;span style=&quot;font-size: 25px;&quot;&gt;Mã nhân viên&lt;/span&gt;&lt;br style=&quot;&quot;&gt;&lt;span style=&quot;font-size: 25px;&quot;&gt;&#9;&lt;/span&gt;&lt;span style=&quot;font-size: 25px;&quot;&gt;Hệ số lương:&lt;/span&gt;&lt;br style=&quot;&quot;&gt;&lt;span style=&quot;font-size: 25px;&quot;&gt;&#9;&lt;/span&gt;&lt;span style=&quot;font-size: 25px;&quot;&gt;Số giờ làm thêm&lt;br&gt;&lt;/span&gt;&lt;span style=&quot;&quot;&gt;&#9;&lt;/span&gt;&lt;span style=&quot;&quot;&gt;Lương:&lt;/span&gt;" style="shape=partialRectangle;html=1;whiteSpace=wrap;connectable=0;overflow=hidden;fillColor=none;top=0;left=0;bottom=0;right=0;pointerEvents=1;fontSize=23;align=left;verticalAlign=top;" vertex="1" parent="556">
                    <mxGeometry x="534" width="266" height="174" as="geometry">
                        <mxRectangle width="266" height="174" as="alternateBounds"/>
                    </mxGeometry>
                </mxCell>
                <mxCell id="560" value="" style="shape=partialRectangle;collapsible=0;dropTarget=0;pointerEvents=0;fillColor=none;top=0;left=0;bottom=0;right=0;points=[[0,0.5],[1,0.5]];portConstraint=eastwest;fontSize=23;align=left;verticalAlign=top;" vertex="1" parent="555">
                    <mxGeometry y="174" width="800" height="174" as="geometry"/>
                </mxCell>
                <mxCell id="561" value="&lt;font style=&quot;font-size: 30px;&quot;&gt;Nguyễn Văn A&lt;/font&gt;&lt;br style=&quot;&quot;&gt;&lt;span style=&quot;font-size: 25px;&quot;&gt;&lt;/span&gt;&lt;span style=&quot;font-size: 25px;&quot;&gt;&#9;&lt;/span&gt;&lt;span style=&quot;font-size: 25px;&quot;&gt;Mã nhân viên&lt;/span&gt;&lt;br style=&quot;&quot;&gt;&lt;span style=&quot;font-size: 25px;&quot;&gt;&#9;&lt;/span&gt;&lt;span style=&quot;font-size: 25px;&quot;&gt;Hệ số lương:&lt;/span&gt;&lt;br style=&quot;&quot;&gt;&lt;span style=&quot;font-size: 25px;&quot;&gt;&#9;&lt;/span&gt;&lt;span style=&quot;font-size: 25px;&quot;&gt;Số giờ làm thêm&lt;br&gt;&lt;/span&gt;&lt;span style=&quot;&quot;&gt;&#9;&lt;/span&gt;&lt;span style=&quot;&quot;&gt;Lương:&lt;/span&gt;" style="shape=partialRectangle;html=1;whiteSpace=wrap;connectable=0;overflow=hidden;fillColor=none;top=0;left=0;bottom=0;right=0;pointerEvents=1;fontSize=23;align=left;verticalAlign=top;" vertex="1" parent="560">
                    <mxGeometry width="266" height="174" as="geometry">
                        <mxRectangle width="266" height="174" as="alternateBounds"/>
                    </mxGeometry>
                </mxCell>
                <mxCell id="562" value="&lt;font style=&quot;font-size: 30px;&quot;&gt;Nguyễn Văn A&lt;/font&gt;&lt;br style=&quot;&quot;&gt;&lt;span style=&quot;font-size: 25px;&quot;&gt;&lt;/span&gt;&lt;span style=&quot;font-size: 25px;&quot;&gt;&#9;&lt;/span&gt;&lt;span style=&quot;font-size: 25px;&quot;&gt;Mã nhân viên&lt;/span&gt;&lt;br style=&quot;&quot;&gt;&lt;span style=&quot;font-size: 25px;&quot;&gt;&#9;&lt;/span&gt;&lt;span style=&quot;font-size: 25px;&quot;&gt;Hệ số lương:&lt;/span&gt;&lt;br style=&quot;&quot;&gt;&lt;span style=&quot;font-size: 25px;&quot;&gt;&#9;&lt;/span&gt;&lt;span style=&quot;font-size: 25px;&quot;&gt;Số giờ làm thêm&lt;br&gt;&lt;/span&gt;&lt;span style=&quot;&quot;&gt;&#9;&lt;/span&gt;&lt;span style=&quot;&quot;&gt;Lương:&lt;/span&gt;" style="shape=partialRectangle;html=1;whiteSpace=wrap;connectable=0;overflow=hidden;fillColor=none;top=0;left=0;bottom=0;right=0;pointerEvents=1;fontSize=23;align=left;verticalAlign=top;" vertex="1" parent="560">
                    <mxGeometry x="266" width="268" height="174" as="geometry">
                        <mxRectangle width="268" height="174" as="alternateBounds"/>
                    </mxGeometry>
                </mxCell>
                <mxCell id="563" value="&lt;font style=&quot;font-size: 30px;&quot;&gt;Nguyễn Văn A&lt;/font&gt;&lt;br style=&quot;&quot;&gt;&lt;span style=&quot;font-size: 25px;&quot;&gt;&lt;/span&gt;&lt;span style=&quot;font-size: 25px;&quot;&gt;&#9;&lt;/span&gt;&lt;span style=&quot;font-size: 25px;&quot;&gt;Mã nhân viên&lt;/span&gt;&lt;br style=&quot;&quot;&gt;&lt;span style=&quot;font-size: 25px;&quot;&gt;&#9;&lt;/span&gt;&lt;span style=&quot;font-size: 25px;&quot;&gt;Hệ số lương:&lt;/span&gt;&lt;br style=&quot;&quot;&gt;&lt;span style=&quot;font-size: 25px;&quot;&gt;&#9;&lt;/span&gt;&lt;span style=&quot;font-size: 25px;&quot;&gt;Số giờ làm thêm&lt;br&gt;&lt;/span&gt;&lt;span style=&quot;&quot;&gt;&#9;&lt;/span&gt;&lt;span style=&quot;&quot;&gt;Lương:&lt;/span&gt;" style="shape=partialRectangle;html=1;whiteSpace=wrap;connectable=0;overflow=hidden;fillColor=none;top=0;left=0;bottom=0;right=0;pointerEvents=1;fontSize=23;align=left;verticalAlign=top;" vertex="1" parent="560">
                    <mxGeometry x="534" width="266" height="174" as="geometry">
                        <mxRectangle width="266" height="174" as="alternateBounds"/>
                    </mxGeometry>
                </mxCell>
                <mxCell id="564" value="" style="shape=partialRectangle;collapsible=0;dropTarget=0;pointerEvents=0;fillColor=none;top=0;left=0;bottom=0;right=0;points=[[0,0.5],[1,0.5]];portConstraint=eastwest;fontSize=23;align=left;verticalAlign=top;" vertex="1" parent="555">
                    <mxGeometry y="348" width="800" height="174" as="geometry"/>
                </mxCell>
                <mxCell id="565" value="&lt;font style=&quot;font-size: 30px;&quot;&gt;Nguyễn Văn A&lt;/font&gt;&lt;br style=&quot;&quot;&gt;&lt;span style=&quot;font-size: 25px;&quot;&gt;&lt;/span&gt;&lt;span style=&quot;font-size: 25px;&quot;&gt;&#9;&lt;/span&gt;&lt;span style=&quot;font-size: 25px;&quot;&gt;Mã nhân viên&lt;/span&gt;&lt;br style=&quot;&quot;&gt;&lt;span style=&quot;font-size: 25px;&quot;&gt;&#9;&lt;/span&gt;&lt;span style=&quot;font-size: 25px;&quot;&gt;Hệ số lương:&lt;/span&gt;&lt;br style=&quot;&quot;&gt;&lt;span style=&quot;font-size: 25px;&quot;&gt;&#9;&lt;/span&gt;&lt;span style=&quot;font-size: 25px;&quot;&gt;Số giờ làm thêm&lt;br&gt;&lt;/span&gt;&lt;span style=&quot;&quot;&gt;&#9;&lt;/span&gt;&lt;span style=&quot;&quot;&gt;Lương:&lt;/span&gt;" style="shape=partialRectangle;html=1;whiteSpace=wrap;connectable=0;overflow=hidden;fillColor=none;top=0;left=0;bottom=0;right=0;pointerEvents=1;fontSize=23;align=left;verticalAlign=top;" vertex="1" parent="564">
                    <mxGeometry width="266" height="174" as="geometry">
                        <mxRectangle width="266" height="174" as="alternateBounds"/>
                    </mxGeometry>
                </mxCell>
                <mxCell id="566" value="&lt;font style=&quot;font-size: 30px;&quot;&gt;Nguyễn Văn A&lt;/font&gt;&lt;br style=&quot;&quot;&gt;&lt;span style=&quot;font-size: 25px;&quot;&gt;&lt;/span&gt;&lt;span style=&quot;font-size: 25px;&quot;&gt;&#9;&lt;/span&gt;&lt;span style=&quot;font-size: 25px;&quot;&gt;Mã nhân viên&lt;/span&gt;&lt;br style=&quot;&quot;&gt;&lt;span style=&quot;font-size: 25px;&quot;&gt;&#9;&lt;/span&gt;&lt;span style=&quot;font-size: 25px;&quot;&gt;Hệ số lương:&lt;/span&gt;&lt;br style=&quot;&quot;&gt;&lt;span style=&quot;font-size: 25px;&quot;&gt;&#9;&lt;/span&gt;&lt;span style=&quot;font-size: 25px;&quot;&gt;Số giờ làm thêm&lt;br&gt;&lt;/span&gt;&lt;span style=&quot;&quot;&gt;&#9;&lt;/span&gt;&lt;span style=&quot;&quot;&gt;Lương:&lt;/span&gt;" style="shape=partialRectangle;html=1;whiteSpace=wrap;connectable=0;overflow=hidden;fillColor=none;top=0;left=0;bottom=0;right=0;pointerEvents=1;fontSize=23;align=left;verticalAlign=top;" vertex="1" parent="564">
                    <mxGeometry x="266" width="268" height="174" as="geometry">
                        <mxRectangle width="268" height="174" as="alternateBounds"/>
                    </mxGeometry>
                </mxCell>
                <mxCell id="567" value="&lt;font style=&quot;font-size: 30px;&quot;&gt;Nguyễn Văn A&lt;/font&gt;&lt;br style=&quot;&quot;&gt;&lt;span style=&quot;font-size: 25px;&quot;&gt;&lt;/span&gt;&lt;span style=&quot;font-size: 25px;&quot;&gt;&#9;&lt;/span&gt;&lt;span style=&quot;font-size: 25px;&quot;&gt;Mã nhân viên&lt;/span&gt;&lt;br style=&quot;&quot;&gt;&lt;span style=&quot;font-size: 25px;&quot;&gt;&#9;&lt;/span&gt;&lt;span style=&quot;font-size: 25px;&quot;&gt;Hệ số lương:&lt;/span&gt;&lt;br style=&quot;&quot;&gt;&lt;span style=&quot;font-size: 25px;&quot;&gt;&#9;&lt;/span&gt;&lt;span style=&quot;font-size: 25px;&quot;&gt;Số giờ làm thêm&lt;br&gt;&lt;/span&gt;&lt;span style=&quot;&quot;&gt;&#9;&lt;/span&gt;&lt;span style=&quot;&quot;&gt;Lương:&lt;/span&gt;" style="shape=partialRectangle;html=1;whiteSpace=wrap;connectable=0;overflow=hidden;fillColor=none;top=0;left=0;bottom=0;right=0;pointerEvents=1;fontSize=23;align=left;verticalAlign=top;" vertex="1" parent="564">
                    <mxGeometry x="534" width="266" height="174" as="geometry">
                        <mxRectangle width="266" height="174" as="alternateBounds"/>
                    </mxGeometry>
                </mxCell>
                <mxCell id="568" value="" style="shape=partialRectangle;collapsible=0;dropTarget=0;pointerEvents=0;fillColor=none;top=0;left=0;bottom=0;right=0;points=[[0,0.5],[1,0.5]];portConstraint=eastwest;fontSize=23;align=left;verticalAlign=top;" vertex="1" parent="555">
                    <mxGeometry y="522" width="800" height="174" as="geometry"/>
                </mxCell>
                <mxCell id="569" value="" style="shape=partialRectangle;html=1;whiteSpace=wrap;connectable=0;overflow=hidden;fillColor=none;top=0;left=0;bottom=0;right=0;pointerEvents=1;fontSize=23;align=left;verticalAlign=top;" vertex="1" parent="568">
                    <mxGeometry width="266" height="174" as="geometry">
                        <mxRectangle width="266" height="174" as="alternateBounds"/>
                    </mxGeometry>
                </mxCell>
                <mxCell id="570" value="" style="shape=partialRectangle;html=1;whiteSpace=wrap;connectable=0;overflow=hidden;fillColor=none;top=0;left=0;bottom=0;right=0;pointerEvents=1;fontSize=23;align=left;verticalAlign=top;" vertex="1" parent="568">
                    <mxGeometry x="266" width="268" height="174" as="geometry">
                        <mxRectangle width="268" height="174" as="alternateBounds"/>
                    </mxGeometry>
                </mxCell>
                <mxCell id="571" value="" style="shape=partialRectangle;html=1;whiteSpace=wrap;connectable=0;overflow=hidden;fillColor=none;top=0;left=0;bottom=0;right=0;pointerEvents=1;fontSize=23;align=left;verticalAlign=top;" vertex="1" parent="568">
                    <mxGeometry x="534" width="266" height="174" as="geometry">
                        <mxRectangle width="266" height="174" as="alternateBounds"/>
                    </mxGeometry>
                </mxCell>
                <mxCell id="572" value="" style="shape=partialRectangle;collapsible=0;dropTarget=0;pointerEvents=0;fillColor=none;top=0;left=0;bottom=0;right=0;points=[[0,0.5],[1,0.5]];portConstraint=eastwest;fontSize=23;align=left;verticalAlign=top;" vertex="1" parent="555">
                    <mxGeometry y="696" width="800" height="174" as="geometry"/>
                </mxCell>
                <mxCell id="573" value="" style="shape=partialRectangle;html=1;whiteSpace=wrap;connectable=0;overflow=hidden;fillColor=none;top=0;left=0;bottom=0;right=0;pointerEvents=1;fontSize=23;align=left;verticalAlign=top;" vertex="1" parent="572">
                    <mxGeometry width="266" height="174" as="geometry">
                        <mxRectangle width="266" height="174" as="alternateBounds"/>
                    </mxGeometry>
                </mxCell>
                <mxCell id="574" value="" style="shape=partialRectangle;html=1;whiteSpace=wrap;connectable=0;overflow=hidden;fillColor=none;top=0;left=0;bottom=0;right=0;pointerEvents=1;fontSize=23;align=left;verticalAlign=top;" vertex="1" parent="572">
                    <mxGeometry x="266" width="268" height="174" as="geometry">
                        <mxRectangle width="268" height="174" as="alternateBounds"/>
                    </mxGeometry>
                </mxCell>
                <mxCell id="575" value="" style="shape=partialRectangle;html=1;whiteSpace=wrap;connectable=0;overflow=hidden;fillColor=none;top=0;left=0;bottom=0;right=0;pointerEvents=1;fontSize=23;align=left;verticalAlign=top;" vertex="1" parent="572">
                    <mxGeometry x="534" width="266" height="174" as="geometry">
                        <mxRectangle width="266" height="174" as="alternateBounds"/>
                    </mxGeometry>
                </mxCell>
                <mxCell id="584" value="" style="swimlane;startSize=20;horizontal=0;childLayout=treeLayout;horizontalTree=1;resizable=0;containerType=tree;fontSize=30;" vertex="1" parent="1">
                    <mxGeometry x="120" y="-480" width="540" height="240" as="geometry"/>
                </mxCell>
                <mxCell id="585" value="Home Page" style="whiteSpace=wrap;html=1;fontSize=30;" vertex="1" parent="584">
                    <mxGeometry x="40" y="100" width="190" height="40" as="geometry"/>
                </mxCell>
                <mxCell id="588" value="Page Staff" style="whiteSpace=wrap;html=1;fontSize=30;" vertex="1" parent="584">
                    <mxGeometry x="280" y="20" width="240" height="40" as="geometry"/>
                </mxCell>
                <mxCell id="589" value="" style="edgeStyle=elbowEdgeStyle;elbow=horizontal;html=1;rounded=0;fontSize=30;" edge="1" parent="584" source="585" target="588">
                    <mxGeometry relative="1" as="geometry"/>
                </mxCell>
                <mxCell id="590" value="" style="edgeStyle=elbowEdgeStyle;elbow=horizontal;html=1;rounded=0;fontSize=30;" edge="1" target="591" source="585" parent="584">
                    <mxGeometry relative="1" as="geometry">
                        <mxPoint x="280" y="-400" as="sourcePoint"/>
                    </mxGeometry>
                </mxCell>
                <mxCell id="591" value="Department" style="whiteSpace=wrap;html=1;fontSize=30;" vertex="1" parent="584">
                    <mxGeometry x="280" y="100" width="240" height="40" as="geometry"/>
                </mxCell>
                <mxCell id="602" value="" style="edgeStyle=elbowEdgeStyle;elbow=horizontal;html=1;rounded=0;fontSize=30;" edge="1" target="603" source="585" parent="584">
                    <mxGeometry relative="1" as="geometry">
                        <mxPoint x="350" y="-480" as="sourcePoint"/>
                    </mxGeometry>
                </mxCell>
                <mxCell id="603" value="Salary" style="whiteSpace=wrap;html=1;fontSize=30;" vertex="1" parent="584">
                    <mxGeometry x="280" y="180" width="240" height="40" as="geometry"/>
                </mxCell>
                <mxCell id="593" value="Page Staff" style="text;html=1;strokeColor=none;fillColor=none;align=center;verticalAlign=middle;whiteSpace=wrap;rounded=0;fontSize=30;" vertex="1" parent="1">
                    <mxGeometry x="260" y="970" width="280" height="90" as="geometry"/>
                </mxCell>
                <mxCell id="596" value="" style="line;strokeWidth=2;html=1;fontSize=16;" vertex="1" parent="1">
                    <mxGeometry x="10" y="1830" width="880" height="10" as="geometry"/>
                </mxCell>
                <mxCell id="597" value="Department" style="text;html=1;strokeColor=none;fillColor=none;align=center;verticalAlign=middle;whiteSpace=wrap;rounded=0;fontSize=30;" vertex="1" parent="1">
                    <mxGeometry x="260" y="1860" width="280" height="90" as="geometry"/>
                </mxCell>
                <mxCell id="598" value="" style="line;strokeWidth=2;html=1;fontSize=16;" vertex="1" parent="1">
                    <mxGeometry x="10" y="2770" width="880" height="10" as="geometry"/>
                </mxCell>
                <mxCell id="599" value="Salary" style="text;html=1;strokeColor=none;fillColor=none;align=center;verticalAlign=middle;whiteSpace=wrap;rounded=0;fontSize=30;" vertex="1" parent="1">
                    <mxGeometry x="260" y="2800" width="280" height="90" as="geometry"/>
                </mxCell>
                <mxCell id="600" value="" style="line;strokeWidth=2;html=1;fontSize=16;" vertex="1" parent="1">
                    <mxGeometry x="10" y="-140" width="880" height="10" as="geometry"/>
                </mxCell>
                <mxCell id="601" value="Home Page" style="text;html=1;strokeColor=none;fillColor=none;align=center;verticalAlign=middle;whiteSpace=wrap;rounded=0;fontSize=30;" vertex="1" parent="1">
                    <mxGeometry x="260" y="-110" width="280" height="90" as="geometry"/>
                </mxCell>
            </root>
        </mxGraphModel>
    </diagram>
</mxfile>